<?xml version="1.0" encoding="utf-8"?>
<!-- Generator: Adobe Illustrator 22.1.0, SVG Export Plug-In . SVG Version: 6.00 Build 0)  -->
<svg version="1.1" id="Layer_1" xmlns="http://www.w3.org/2000/svg" xmlns:xlink="http://www.w3.org/1999/xlink" x="0px" y="0px"
	 viewBox="0 0 1100 330" style="enable-background:new 0 0 1100 330;" xml:space="preserve">
<style type="text/css">
	.st0{fill:#F7941D;}
	.st1{fill:#ED1C24;}
</style>
<g>
	<g>
		<path class="st0" d="M187.4,211c0-12.5,4.4-23.2,13.2-32.2c8.8-9,19.5-13.6,32.1-13.8c8.8,0.1,16.7,2.3,23.5,6.6
			c6.8,4.3,12,9.6,15.5,15.8c4.5,7.2,6.8,15.2,6.9,24.2c0,1.1-0.1,2.3-0.2,3.4h-79.9c0.4,8.5,4,15.9,10.8,22.2
			c6.8,6.3,14.5,9.4,23.1,9.4c7.6-0.1,14.3-2.1,19.8-6.1c5.6-4,9.4-8.8,11.5-14.6h11.8c-3.1,8.9-8.5,16.3-16.3,22.1
			c-7.8,5.8-16.7,8.7-26.6,8.7c-12.4,0-23-4.4-31.9-13.3C191.8,234.6,187.4,223.8,187.4,211z M198.5,204.9h68.3
			c-1.6-9.6-5.8-16.9-12.4-22.1c-6.7-5.2-13.9-7.8-21.7-7.8c-7.6,0-14.9,2.6-21.7,7.8C204.2,187.9,200,195.3,198.5,204.9z"/>
		<path class="st0" d="M285.7,177.3v-10.1h18.4v-30.9h11.2v30.9h21v10.1h-21v77.3h-11.2v-77.3H285.7z"/>
		<path class="st0" d="M338.3,177.3v-10.1h18.4v-30.9h11.2v30.9h21v10.1h-21v77.3h-11.2v-77.3H338.3z"/>
		<path class="st0" d="M399,156.5v-20.2h11.2v20.2H399z M399,254.6v-87.4h11.2v87.4H399z"/>
		<path class="st0" d="M429.4,167.2h11.2v11.2h0.4c2.1-3.4,5.5-6.5,10.1-9.3c4.6-2.8,10.2-4.1,16.8-4.1c11.3,0,20.5,3.6,27.6,10.7
			c7.2,7,10.8,17.3,10.8,30.9v48.1h-11.2v-48.1c0-10.7-2.8-18.7-8.3-24c-5.1-5-11.4-7.5-19-7.5c-7.6,0-13.9,2.5-19,7.5
			c-5.5,5.4-8.2,13.4-8.2,24v48.1h-11.2V167.2z"/>
		<path class="st0" d="M520.8,211.3c0-13.4,4.6-24.5,13.8-33.2c9.2-8.7,19.8-13.1,31.9-13.1c5.7,0,11.6,1.3,17.8,3.8
			c6.2,2.5,11.5,7.2,16,14h0.3v-15.6h11.2v73.7c0,4.4-0.1,7.9-0.2,10.5c-0.2,2.6-0.9,6-2.1,10.2c-1.3,4.2-3.1,8-5.6,11.2
			c-2.5,3.5-5.7,6.5-9.4,8.9c-3.7,2.4-7.4,4.1-11,5c-3.7,1-6.6,1.6-8.7,1.8c-2.1,0.3-4,0.4-5.6,0.4c-2.9,0-5.8-0.2-8.7-0.6
			c-2.9-0.4-6.3-1.3-10.1-2.8c-3.8-1.4-7.2-3.3-10.4-5.5c-3.1-2.2-6.2-5.4-9-9.4c-2.9-4-5-8.6-6.6-13.8h11.8c0.8,2.2,2,4.4,3.4,6.6
			c1.5,2.1,3.4,4.5,5.9,7c2.5,2.5,5.8,4.6,9.8,6.1c4.1,1.5,8.6,2.3,13.6,2.3c8.5,0,15.9-2.7,22.2-8c6.3-5.3,9.4-13.5,9.4-24.5v-7.7
			h-0.3c-3.1,5.9-7.7,10.4-14,13.5c-6.2,3.1-12.8,4.6-19.7,4.6c-12,0-22.6-4.3-31.9-12.8C525.4,235.4,520.8,224.5,520.8,211.3z
			 M531.9,211c0,9.7,3.3,18,9.9,25.1c6.6,7,14.8,10.6,24.7,10.6c10.7,0,19.1-3.8,25.3-11.4c6.2-7.6,9.3-15.7,9.3-24.2
			c0-9.7-3.4-18.1-10.1-25.2S576.2,175,566.5,175c-9.7,0-17.9,3.6-24.5,10.7C535.3,192.7,531.9,201.2,531.9,211z"/>
		<path class="st1" d="M621.8,156.7v-20.4h65.8v20.4h-22v97.9h-21.9v-97.9H621.8z"/>
		<path class="st1" d="M691.6,165.9h19.5v7.8h0.3c1.7-2.4,3.2-4.3,4.4-5.6c1.2-1.3,3.1-2.5,5.7-3.6c2.5-1.1,5.5-1.7,9-1.7h1.7v20.4
			c-12.9,0.5-19.4,7.6-19.4,21.3v50h-21.2V165.9z"/>
		<path class="st1" d="M887.8,254.6h-16.6l-35.8-88.7h23l21.4,58.8h0.5c0,0,60.3-45.9,7.5-131.2C887.8,93.5,977.1,163.5,887.8,254.6
			z"/>
		<path class="st1" d="M924.4,210.5c0-12.9,4.5-24.2,13.4-33.8c8.9-9.6,20-14.4,33.4-14.4c8.9,0,17,2.4,24.2,7.1
			c7.2,4.7,12.6,10.6,16.2,17.7c3.6,7.1,5.4,14.4,5.4,21.9c0,3.3-0.4,6.8-1.2,10.7h-68.9c0.6,3.8,3.2,7.8,7.7,12
			c4.5,4.1,10.1,6.2,16.8,6.2c9.5,0,16.3-3.8,20.4-11.3h22.3c-2.7,8.4-7.9,15.7-15.9,21.7c-7.9,6.1-16.9,9.1-26.9,9.1
			c-13.1,0-24.2-4.6-33.3-13.7C928.9,234.6,924.4,223.5,924.4,210.5z M946.2,202.7h49.1c-1.2-6.7-4.1-11.9-8.6-15.5
			c-4.5-3.6-9.7-5.4-15.4-5.4c-5,0-10,1.6-14.9,4.9C951.4,190,948,195.3,946.2,202.7z"/>
		<path class="st1" d="M1028.8,254.6V136.3h21.2v118.3H1028.8z"/>
		<path class="st1" d="M809.5,165.9v11.2h-0.4c-0.2-0.4-0.7-1.1-1.5-2c-0.8-0.9-2.1-2.1-3.9-3.5c-1.8-1.5-3.8-2.8-6-4.1
			c-2.2-1.3-4.9-2.4-8-3.3c-3.2-0.9-6.5-1.4-9.9-1.4c-12.5,0-23,4.5-31.6,13.4c-8.6,8.9-12.9,20.1-12.9,33.5
			c0,14.3,4.2,25.8,12.6,34.6c8.4,8.8,18.6,13.2,30.5,13.2c5.6,0,11.3-1.3,17.2-3.9c5.9-2.6,10.5-5.9,13.9-10v11h21.2v-88.7H809.5z
			 M782.7,246.2c0,0-23.6-19.9-23.6-40c0-13.1,10.6-23.6,23.6-23.6c13.1,0,23.6,10.6,23.6,23.6C806.3,226.3,782.7,246.2,782.7,246.2
			z"/>
		<circle class="st1" cx="782.7" cy="206.2" r="10.3"/>
		<path class="st0" d="M165.7,205.7L113,166.9l-43.3,31.9c0.4,3.2,1.5,8,4,13.2l39.3-28.9l46.3,34.1c-3.1,6.9-8.2,13.1-14.3,18
			c-8.9,7.2-19.2,10.8-31.1,10.8c-14.8,0-27.2-5-37.2-15.1c-10-10-14.9-21.8-14.9-35.3c0-13.5,5-25.4,14.9-35.5
			c9.9-10.1,22.2-15.2,36.8-15.2c9.3,0,17.7,2.2,25.2,6.7c7.6,4.5,13.2,9.9,16.8,16.2h13.7c-1.3-3.3-3.5-6.8-6.5-10.4
			c-3-3.6-6.8-7.2-11.4-10.8c-4.5-3.6-10.2-6.5-16.9-8.9c-6.8-2.3-13.8-3.5-21.1-3.5c-12.2,0-23.2,3-33,8.9
			c-9.8,6-17.3,13.6-22.6,22.8c-5.2,9.3-7.8,19.1-7.8,29.4c0,16.5,6.2,30.8,18.6,43c12.4,12.2,27.4,18.3,44.9,18.3
			c9.9,0,19.4-2.2,28.4-6.6c9.1-4.4,16.8-11,23.2-19.7c1.4-1.9,2.7-3.9,3.8-6c2.2-3.9,3.9-8.1,5.1-12.5L165.7,205.7z"/>
		<rect x="98.2" y="204.5" class="st1" width="11.6" height="11.6"/>
		<rect x="116.2" y="204.5" class="st1" width="11.6" height="11.6"/>
		
			<rect x="98.2" y="222.5" transform="matrix(-1.836970e-16 1 -1 -1.836970e-16 332.3425 124.3923)" class="st1" width="11.6" height="11.6"/>
		
			<rect x="116.2" y="222.5" transform="matrix(-1.836970e-16 1 -1 -1.836970e-16 350.4137 106.3211)" class="st1" width="11.6" height="11.6"/>
		<path class="st1" d="M513.8,164.9c0,0-16.5-8-29.2-30.1c0,0,4.4-2.2,6.4-3.8s4.4-2,4.4-2s-2.3-0.9-3.4-1.9c-1.1-1-4.1-2.8-6.5-2.2
			c-2.4,0.6-5.4,1.1-6.2-1c-0.8-2.1-1-14.8-6.2-22.6s-5.5-29.5-4.1-33.6c0,0-23,23.2-5.8,58.9c0,0-9.1,5.6-12,6.1
			c-2.9,0.5-21.9-1.3-21.9-1.3s-0.1,13.5,5.8,17.3c0,0,14.1-9.9,19.1-10.4c5.1-0.5,15.6,1,17.4,2.3
			C473.4,141.8,487.2,166.2,513.8,164.9z"/>
		<path class="st1" d="M561.7,116.2c0,0-12.8-6.2-22.5-23.3c0,0,3.4-1.7,4.9-2.9c1.6-1.2,3.4-1.5,3.4-1.5s-1.8-0.7-2.6-1.5
			c-0.8-0.8-3.2-2.1-5-1.7c-1.8,0.4-4.1,0.8-4.8-0.8s-0.8-11.4-4.8-17.5s-4.3-22.8-3.2-26c0,0-17.8,17.9-4.4,45.5c0,0-7,4.4-9.3,4.7
			s-16.9-1-16.9-1s-0.1,10.4,4.4,13.3c0,0,10.9-7.7,14.8-8c3.9-0.4,12,0.8,13.4,1.8C530.4,98.4,541,117.2,561.7,116.2z"/>
		<path class="st1" d="M599.9,150.4c0,0-7.5-3.6-13.2-13.6c0,0,2-1,2.9-1.7c0.9-0.7,2-0.9,2-0.9s-1-0.4-1.5-0.9
			c-0.5-0.5-1.9-1.3-2.9-1c-1.1,0.3-2.4,0.5-2.8-0.5c-0.4-1-0.5-6.7-2.8-10.2s-2.5-13.3-1.9-15.2c0,0-10.4,10.5-2.6,26.6
			c0,0-4.1,2.6-5.4,2.8s-9.9-0.6-9.9-0.6s-0.1,6.1,2.6,7.8c0,0,6.4-4.5,8.6-4.7s7.1,0.5,7.9,1C581.6,140,587.8,151,599.9,150.4z"/>
	</g>
	<polygon class="st0" points="859.9,73.3 884,108.2 882.8,89.7 900.6,84.8 	"/>
	<path class="st0" d="M876.9,197.8l5.4,14.8c7.4-9.4,31.6-45.5,11.7-91C893.9,121.6,905.7,160.5,876.9,197.8z"/>
</g>
</svg>
